<?xml version="1.0" encoding="utf-8"?>
<!-- Generator: Adobe Illustrator 24.0.0, SVG Export Plug-In . SVG Version: 6.00 Build 0)  -->
<svg version="1.1"
	 id="Layer_1" xmlns:cc="http://creativecommons.org/ns#" xmlns:dc="http://purl.org/dc/elements/1.1/" xmlns:inkscape="http://www.inkscape.org/namespaces/inkscape" xmlns:rdf="http://www.w3.org/1999/02/22-rdf-syntax-ns#" xmlns:sodipodi="http://sodipodi.sourceforge.net/DTD/sodipodi-0.dtd" xmlns:svg="http://www.w3.org/2000/svg"
	 xmlns="http://www.w3.org/2000/svg" xmlns:xlink="http://www.w3.org/1999/xlink" x="0px" y="0px" viewBox="0 0 100 100"
	 style="enable-background:new 0 0 100 100;" xml:space="preserve">
<path d="M49.7,22.3c-0.2,0-0.3,0.1-0.5,0.1L3.4,39.9c-1.1,0.4-1.7,1.7-1.3,2.8c0.2,0.6,0.7,1.1,1.3,1.3l16,6.1v19.1
	c0,2.2,1.3,4.1,3,5.6c1.7,1.4,4,2.6,6.7,3.5c5.5,1.9,12.7,2.9,20.8,2.9s15.3-1,20.8-2.9c2.7-0.9,5-2.1,6.7-3.5c1.7-1.4,3-3.4,3-5.6
	V50.1l16-6.1c1.1-0.4,1.7-1.7,1.3-2.8c-0.2-0.6-0.7-1.1-1.3-1.3L50.8,22.4c-0.3-0.1-0.6-0.1-0.9-0.1C49.9,22.3,49.8,22.3,49.7,22.3z
	 M50,26.8l39.7,15.1L50,57L10.3,41.9L50,26.8z M23.8,51.8l25.4,9.7c0.5,0.2,1.1,0.2,1.6,0l25.4-9.7v17.4c0,0.6-0.3,1.3-1.4,2.2
	c-1.1,0.9-3,1.9-5.3,2.7c-4.8,1.6-11.7,2.7-19.4,2.7s-14.6-1-19.4-2.7c-2.4-0.8-4.2-1.8-5.3-2.7c-1.1-0.9-1.4-1.6-1.4-2.2V51.8z"/>
</svg>
