<?xml version="1.0" encoding="utf-8"?>
<!-- Generator: Adobe Illustrator 24.0.0, SVG Export Plug-In . SVG Version: 6.00 Build 0)  -->
<svg version="1.1" id="Layer_1" xmlns="http://www.w3.org/2000/svg" xmlns:xlink="http://www.w3.org/1999/xlink" x="0px" y="0px"
	 viewBox="0 0 100 100" style="enable-background:new 0 0 100 100;" xml:space="preserve">
<title>资源 348x</title>
<g>
	<g>
		<path d="M12.3,97.3c-5.3-0.1-9.6-4.4-9.6-9.8V61.8c0-5.3,4.3-9.7,9.6-9.8h25.3c5.3,0.1,9.6,4.4,9.6,9.8v25.7
			c0,5.3-4.3,9.7-9.6,9.8H12.3z M37.6,54.1H12.3c-4.2,0-7.6,3.5-7.6,7.7v25.7c0,4.2,3.4,7.7,7.6,7.8h25.3c4.2-0.1,7.6-3.5,7.6-7.7
			c0,0,0,0,0,0V61.8C45.2,57.6,41.8,54.1,37.6,54.1z M47.2,87.6L47.2,87.6L47.2,87.6z"/>
		<path d="M62.4,97.3c-5.3-0.1-9.6-4.5-9.5-9.8V61.8c0-5.3,4.3-9.7,9.6-9.8h25.2c5.3,0.1,9.6,4.4,9.6,9.8v25.7
			c0,5.3-4.3,9.7-9.6,9.8H62.4z M87.7,54.1H62.5c-4.2,0-7.6,3.5-7.6,7.7v25.7c0,4.2,3.4,7.7,7.6,7.8h25.3c4.2-0.1,7.6-3.5,7.6-7.7
			c0,0,0,0,0,0V61.8C95.3,57.6,91.9,54.1,87.7,54.1z M97.3,87.6L97.3,87.6L97.3,87.6z"/>
		<path d="M12.3,47.9c-5.3-0.1-9.6-4.4-9.6-9.8V12.4c0-5.3,4.3-9.7,9.6-9.8h25.3c5.3,0.1,9.6,4.4,9.6,9.8v25.7
			c0,5.3-4.3,9.7-9.6,9.8H12.3z M37.6,4.7H12.3c-4.2,0-7.6,3.5-7.6,7.7v25.7c0,4.2,3.4,7.7,7.6,7.8h25.3c4.2-0.1,7.6-3.5,7.6-7.7
			c0,0,0,0,0,0V12.4C45.2,8.2,41.8,4.7,37.6,4.7z M47.2,38.2L47.2,38.2L47.2,38.2z"/>
		<path d="M62.4,47.9c-5.3-0.1-9.6-4.5-9.5-9.8V12.4c0-5.3,4.2-9.7,9.5-9.8h25.3c5.3,0.1,9.6,4.4,9.6,9.8v25.7
			c0,5.3-4.3,9.7-9.6,9.8H62.4z M87.7,4.7H62.4c-4.2,0.1-7.6,3.6-7.5,7.7v25.7c0,4.2,3.4,7.7,7.6,7.8h25.3c4.2-0.1,7.6-3.5,7.6-7.7
			c0,0,0,0,0,0V12.4C95.3,8.2,91.9,4.7,87.7,4.7z M97.3,38.2L97.3,38.2L97.3,38.2z"/>
		<path d="M34.4,26.3h-19c-0.6,0-1-0.4-1-1s0.4-1,1-1h19c0.6,0,1,0.4,1,1S35,26.3,34.4,26.3z"/>
		<path d="M34.4,80.5h-19c-0.6,0-1-0.4-1-1s0.4-1,1-1h19c0.6,0,1,0.4,1,1S35,80.5,34.4,80.5z"/>
		<path d="M34.4,71h-19c-0.6,0-1-0.4-1-1s0.4-1,1-1h19c0.6,0,1,0.4,1,1S35,71,34.4,71z"/>
		<path d="M85.2,26.3H65c-0.6,0-1-0.4-1-1s0.4-1,1-1h20.2c0.6,0,1,0.4,1,1S85.7,26.3,85.2,26.3z"/>
		<path d="M75.1,36.4c-0.6,0-1-0.4-1-1V15.2c0-0.6,0.4-1,1-1s1,0.4,1,1v20.2C76.1,35.9,75.6,36.4,75.1,36.4z"/>
		<path d="M82.2,82.8c-0.3,0-0.5-0.1-0.7-0.3L67.2,68.3c-0.4-0.4-0.4-1,0-1.4c0.4-0.4,1-0.4,1.4,0l14.3,14.3c0.4,0.4,0.4,1,0,1.4
			C82.7,82.7,82.5,82.8,82.2,82.8z"/>
		<path d="M67.9,82.8c-0.3,0-0.5-0.1-0.7-0.3c-0.4-0.4-0.4-1,0-1.4l14.3-14.3c0.4-0.4,1-0.4,1.4,0c0.4,0.4,0.4,1,0,1.4L68.7,82.5
			C68.5,82.7,68.2,82.8,67.9,82.8z"/>
	</g>
</g>
</svg>
