<?xml version="1.0" encoding="utf-8"?>
<!-- Generator: Adobe Illustrator 24.0.0, SVG Export Plug-In . SVG Version: 6.00 Build 0)  -->
<svg version="1.1" id="Layer_1" xmlns="http://www.w3.org/2000/svg" xmlns:xlink="http://www.w3.org/1999/xlink" x="0px" y="0px"
	 viewBox="0 0 200 200" style="enable-background:new 0 0 200 200;" xml:space="preserve">
<style type="text/css">
	.st0{fill-rule:evenodd;clip-rule:evenodd;}
</style>
<path class="st0" d="M88.8,182.9l-5,9.2c-1.2,2.1-3.7,3-5.9,2l-24.7-9.6c-2.2-0.8-3.4-3.2-2.8-5.4l0,0l2.5-10.1
	c-3.7-2.5-7.2-5.4-10.4-8.5c-3.3-3.1-6.3-6.5-8.9-10l-10,3c-2.3,0.7-4.6-0.5-5.5-2.6l0,0L7.3,126.4c-1-2.2,0-4.8,2.1-5.9l8.7-5.2
	c-0.4-2-0.7-3.9-0.9-5.9c-0.3-3.1-0.5-6.2-0.5-9.3c0-2.5,0.1-5,0.3-7.5c0-0.1,0-0.3,0.1-0.4c0.1-1.2,0.3-2.4,0.4-3.6l-9.2-5
	c-2.1-1.2-3-3.7-2-5.9l9.6-24.7c0.8-2.2,3.2-3.4,5.4-2.8l0,0l10.1,2.5c2.5-3.7,5.4-7.1,8.5-10.4l0,0c3.1-3.3,6.5-6.2,10-9l-3-10
	c-0.7-2.3,0.5-4.6,2.6-5.5l0,0L73.9,6.9c2.2-1,4.8,0,5.9,2.1l5.2,8.7c2-0.4,3.9-0.7,5.9-0.9c3.1-0.3,6.2-0.5,9.3-0.5
	c2.5,0,5,0.1,7.5,0.3c0.1,0,0.3,0,0.4,0.1c1.2,0.1,2.4,0.3,3.6,0.4l5-9.2c1.2-2.1,3.7-3,5.9-2l24.7,9.6c2.2,0.8,3.4,3.2,2.8,5.4l0,0
	l-2.5,10.1c3.7,2.5,7.1,5.4,10.4,8.5l0,0c3.3,3.1,6.2,6.5,9,10l10-3c2.3-0.7,4.6,0.5,5.5,2.6l0,0l10.8,24.5c1,2.2,0,4.8-2.1,5.9
	l-8.7,5.2c0.4,2,0.7,3.9,0.9,5.9c0.3,3.1,0.5,6.2,0.5,9.3c0,2.5-0.1,5-0.3,7.5c0,0.1,0,0.3-0.1,0.4c-0.1,1.2-0.3,2.4-0.4,3.7l9.2,5
	c2.1,1.1,3,3.7,2,5.9l-9.6,24.7c-0.8,2.2-3.2,3.4-5.4,2.8l0,0l-10.1-2.5c-2.5,3.7-5.4,7.1-8.5,10.4l0,0c-3.1,3.3-6.5,6.2-10,9l3,10
	c0.7,2.3-0.5,4.6-2.6,5.5l0,0l-24.5,10.8c-2.2,1-4.8,0-5.9-2.1l-5.2-8.7c-2,0.4-3.9,0.7-5.9,0.9c-3.1,0.3-6.2,0.5-9.3,0.5
	c-2.5,0-5-0.1-7.5-0.3c-0.1,0-0.3,0-0.4-0.1C91.2,183.2,90,183,88.8,182.9L88.8,182.9z M77.7,184.1l4.6-8.5l0,0
	c0.9-1.7,2.9-2.7,4.9-2.3c2,0.4,4.1,0.6,6.2,0.8c0.1,0,0.3,0,0.4,0c2.2,0.2,4.4,0.3,6.7,0.3c2.9,0,5.6-0.2,8.3-0.5
	c2.8-0.3,5.5-0.8,8.2-1.4c1.9-0.4,3.9,0.4,5,2.1l4.9,8.2l17-7.5l-2.7-9.1c-0.6-1.9,0-4.1,1.7-5.3c4.1-2.9,7.9-6.1,11.3-9.7l0,0l0,0
	c3.4-3.5,6.4-7.4,9-11.5c1-1.8,3.1-2.8,5.1-2.2l9.3,2.3l6.7-17.3l-8.5-4.6l0,0c-1.7-0.9-2.7-2.9-2.3-4.9c0.4-2,0.6-4.1,0.8-6.2
	c0-0.1,0-0.3,0-0.4c0.2-2.2,0.3-4.4,0.3-6.7c0-2.9-0.2-5.6-0.5-8.3c-0.3-2.8-0.8-5.5-1.4-8.2c-0.4-1.9,0.4-3.9,2.1-5l8.2-4.9
	l-7.5-17l-9.1,2.7c-1.9,0.6-4.1,0-5.3-1.7c-2.9-4.1-6.1-7.9-9.7-11.3l0,0l0,0c-3.5-3.4-7.4-6.4-11.5-9c-1.8-1-2.8-3.1-2.2-5.1
	l2.3-9.3L123,15.9l-4.6,8.5l0,0c-0.9,1.7-2.9,2.7-4.9,2.3c-2-0.4-4.1-0.6-6.2-0.8c-0.1,0-0.3,0-0.4,0c-2.2-0.2-4.4-0.3-6.7-0.3
	c-2.9,0-5.6,0.2-8.3,0.5c-2.8,0.3-5.5,0.8-8.2,1.4c-1.9,0.4-3.9-0.4-5-2.1L73.9,17l-17,7.5l2.7,9.1c0.6,1.9,0,4.1-1.7,5.3
	c-4.1,2.9-7.9,6.1-11.3,9.7l0,0l0,0c-3.4,3.5-6.4,7.4-9,11.6c-1,1.8-3.1,2.7-5.1,2.2L23,60l-6.7,17.3l8.5,4.6l0,0
	c1.7,0.9,2.7,2.9,2.3,4.9c-0.4,2-0.6,4.1-0.8,6.2c0,0.1,0,0.3,0,0.4c-0.2,2.2-0.3,4.4-0.3,6.7c0,2.9,0.2,5.6,0.5,8.3
	c0.3,2.8,0.8,5.5,1.4,8.2c0.4,1.9-0.4,3.9-2.1,5l-8.2,4.9l7.5,17l9.1-2.7c1.9-0.6,4.1,0,5.3,1.7c2.9,4.2,6.1,8,9.7,11.4
	c3.5,3.4,7.4,6.4,11.6,9c1.8,1,2.8,3.1,2.2,5.1l-2.3,9.3L77.7,184.1L77.7,184.1z M100.3,157.4c15.9,0,30.2-6.4,40.6-16.8
	c10.4-10.4,16.8-24.7,16.8-40.6s-6.4-30.2-16.8-40.6s-24.7-16.8-40.6-16.8S70.1,49,59.7,59.4S42.9,84.1,42.9,100s6.4,30.2,16.8,40.6
	C70.1,151,84.5,157.4,100.3,157.4L100.3,157.4z M66.3,134.1c8.7,8.7,20.8,14.1,34.1,14.1c13.3,0,25.4-5.4,34.1-14.1
	c8.7-8.7,14.1-20.8,14.1-34.1s-5.4-25.4-14.1-34.1c-8.7-8.7-20.8-14.1-34.1-14.1C87,51.8,75,57.2,66.3,65.9S52.2,86.7,52.2,100
	C52.2,113.3,57.5,125.4,66.3,134.1z"/>
</svg>
