<?xml version="1.0" encoding="utf-8"?>
<!-- Generator: Adobe Illustrator 24.0.0, SVG Export Plug-In . SVG Version: 6.00 Build 0)  -->
<svg version="1.1" id="Layer_1" xmlns="http://www.w3.org/2000/svg" xmlns:xlink="http://www.w3.org/1999/xlink" x="0px" y="0px"
	 viewBox="0 0 100 100" style="enable-background:new 0 0 100 100;" xml:space="preserve">
<path d="M50,77.2c13.1,0,23.8-10.7,23.8-23.8c0-0.9-0.7-1.6-1.6-1.6h-1.8H29.7h-1.8c-0.9,0-1.6,0.7-1.6,1.6
	C26.3,66.6,36.9,77.2,50,77.2z M63.5,63.6v-8.5h6.7h0.1c-0.5,6.2-3.8,11.6-8.5,15C62.9,68.2,63.5,66,63.5,63.6z M39.8,55.1h8.6v9.4
	c0,0.9,0.7,1.6,1.6,1.6s1.6-0.7,1.6-1.6v-9.4h8.6v8.5c0,5.6-4.6,10.2-10.2,10.2s-10.2-4.6-10.2-10.2V55.1z M29.7,55.1h6.7v8.5
	c0,2.4,0.6,4.6,1.7,6.5c-4.8-3.4-8-8.8-8.5-15H29.7z"/>
<path d="M50,93c23.7,0,43-19.3,43-43S73.7,7,50,7S7,26.3,7,50S26.3,93,50,93z M50,10.3c21.9,0,39.7,17.8,39.7,39.7
	S71.9,89.7,50,89.7S10.3,71.9,10.3,50S28.1,10.3,50,10.3z"/>
<path d="M28.5,41.8c0.3,0.6,0.9,0.9,1.5,0.9c0.2,0,0.5,0,0.7-0.2l13.7-6.4c0.6-0.3,0.9-0.9,0.9-1.5c0-0.6-0.4-1.2-0.9-1.5l-13.7-6.4
	c-0.8-0.4-1.8,0-2.2,0.8c-0.4,0.8,0,1.8,0.8,2.2l10.5,4.9l-10.5,4.9C28.5,40,28.1,41,28.5,41.8z"/>
<path d="M55.6,36.2l13.7,6.4c0.2,0.1,0.5,0.2,0.7,0.2c0.6,0,1.2-0.4,1.5-0.9c0.4-0.8,0-1.8-0.8-2.2l-10.5-4.9l10.5-4.9
	c0.8-0.4,1.2-1.4,0.8-2.2c-0.4-0.8-1.4-1.2-2.2-0.8l-13.7,6.4c-0.6,0.3-0.9,0.9-0.9,1.5C54.7,35.4,55.1,35.9,55.6,36.2z"/>
</svg>
