<?xml version="1.0" encoding="utf-8"?>
<!-- Generator: Adobe Illustrator 24.0.0, SVG Export Plug-In . SVG Version: 6.00 Build 0)  -->
<svg version="1.1" id="Layer_1" xmlns="http://www.w3.org/2000/svg" xmlns:xlink="http://www.w3.org/1999/xlink" x="0px" y="0px"
	 viewBox="0 0 100 100" style="enable-background:new 0 0 100 100;" xml:space="preserve">
<style type="text/css">
	.st0{fill-rule:evenodd;clip-rule:evenodd;}
</style>
<path class="st0" d="M50,97.6c-4.4,0-8.6-0.6-12.7-1.7c-4.2-1.2-8.1-2.9-11.8-5c-1-0.6-1.4-2-0.8-3c0.1-0.2,0.2-0.3,0.3-0.4l0,0
	l21-21c0.6-0.6,1.6-0.8,2.4-0.5c5.2,1.6,9.7,1.3,13.3-0.1c2.2-0.9,4.1-2.3,5.6-4c1.5-1.7,2.7-3.8,3.4-6.1c1.1-3.4,1.2-7.3,0.1-11.3
	l-9.4,9.4c0,0-0.1,0.1-0.1,0.1c-3.4,3.4-7.5,3.7-10.9,2.3c-1.3-0.5-2.5-1.4-3.5-2.3c-1-1-1.8-2.2-2.4-3.5c-1.4-3.4-1.1-7.6,2.4-11
	l9.7-9.7c-2.5-0.9-5.2-1.2-7.8-0.9c-3.4,0.4-6.7,1.8-9.4,4c-2.7,2.1-4.7,5-5.7,8.4c-1,3.4-1,7.3,0.6,11.6c0.3,0.8,0.1,1.7-0.5,2.3
	l0,0L13.2,75.8c-0.9,0.9-2.3,0.9-3.1,0c-0.2-0.2-0.3-0.3-0.4-0.5c-2.3-3.7-4.1-7.7-5.4-12C3.1,59,2.4,54.6,2.4,50
	c0-13.1,5.3-25,13.9-33.7C25,7.7,36.9,2.4,50,2.4s25,5.3,33.7,13.9S97.6,36.9,97.6,50s-5.3,25-13.9,33.7S63.1,97.6,50,97.6L50,97.6z
	 M38.5,91.6c3.7,1,7.5,1.5,11.5,1.5c11.9,0,22.7-4.8,30.5-12.6c7.8-7.8,12.6-18.6,12.6-30.5s-4.8-22.7-12.6-30.5
	C72.7,11.7,61.9,6.8,50,6.8s-22.7,4.8-30.5,12.6S6.8,38.1,6.8,50c0,4.2,0.6,8.2,1.7,12c0.9,3,2.1,5.9,3.6,8.7L29.8,53
	c-1.4-4.7-1.4-9.1-0.2-13c1.3-4.3,3.9-7.9,7.2-10.6c3.3-2.7,7.4-4.4,11.6-4.9c4.4-0.5,9,0.2,13.1,2.6c0.2,0.1,0.4,0.2,0.6,0.4
	c0.9,0.9,0.9,2.3,0,3.1L50.1,42.5c-2,2-2.2,4.3-1.4,6.2c0.3,0.8,0.8,1.5,1.4,2.1c0.6,0.6,1.3,1.1,2.1,1.4c1.9,0.8,4.1,0.5,6.1-1.4
	c0,0,0.1-0.1,0.1-0.1l11.9-11.9l0,0c0.2-0.2,0.4-0.4,0.7-0.5c1.1-0.5,2.4,0.1,2.9,1.2c2.5,6.1,2.7,12.3,1.1,17.5
	c-0.9,2.9-2.3,5.5-4.3,7.7c-1.9,2.2-4.4,4-7.2,5.1c-4.2,1.7-9.4,2.1-15.1,0.6l-18,18C32.9,89.8,35.6,90.8,38.5,91.6z"/>
</svg>
